<svg width="385" height="69" viewBox="0 0 385 69" fill="none" xmlns="http://www.w3.org/2000/svg">
<path d="M44.2582 11.9238C44.2582 11.9238 43.0541 10.567 42.2182 9.76133C41.6327 9.19705 41.4471 8.83293 40.7847 8.36128C39.9132 7.74079 39.9519 7.61057 38.6725 6.9964C37.3932 6.38224 35.3514 6.37465 35.3514 6.37465C35.3514 6.37465 18.8828 8.16115 8.31874 7.77564C5.87326 7.6864 2.29474 7.52078 2.06267 7.4194C1.8306 7.31802 2.05508 9.46119 2.05508 9.46119L2.37149 52.7678C2.37149 52.7678 2.30383 54.7022 2.86908 55.8041C3.1719 56.3945 4.06323 57.4865 4.67121 57.7521C5.36744 58.0563 5.20697 58.178 5.68917 57.6994C7.73856 55.6652 13.5281 51.3957 13.5281 51.3957C13.6569 51.1637 13.6288 51.1518 13.606 50.7112C13.4218 47.1572 12.5549 30.4286 11.9764 19.2674C11.965 19.0466 11.9647 19.0412 11.9471 18.7019C11.9295 18.3626 14.0668 18.025 14.0668 18.025C14.0668 18.025 18.2606 17.2232 20.1336 16.9167C21.6669 16.6658 22.528 16.5197 24.0748 16.3722C25.6599 16.2211 26.5728 15.9191 28.1466 16.1612C29.7712 16.411 30.6206 16.9027 32.0802 17.6585C33.2902 18.285 33.9553 18.6894 35.0134 19.5478C36.4779 20.7361 37.4027 21.4427 38.2608 23.1221C39.0185 24.6053 39.0546 25.6144 39.2694 27.2661C39.5437 29.3755 39.2903 30.587 39.2114 32.7128C39.1056 35.5636 38.9076 37.1547 38.6817 39.9985C38.4768 42.5801 38.3162 44.0237 38.1169 46.6057C37.9489 48.7827 37.9163 50.008 37.7255 52.1831C37.5062 54.6822 37.2982 56.0749 37.0358 58.5699C36.8859 59.9945 36.5819 60.9449 37.003 62.3141C37.342 63.4165 37.5136 63.8526 38.3703 64.6249C39.3281 65.4883 39.7879 65.828 41.0538 66.0736C42.0959 66.2757 42.8448 66.4344 43.9049 66.3794C45.0976 66.3176 45.731 66.3594 46.8281 65.8877C47.5607 65.5728 47.9846 65.4917 48.3589 64.7877C48.5956 64.3424 48.8693 63.8899 48.9672 63.3952C49.8874 58.7426 49.1317 51.2517 49.1317 51.2517L48.7214 43.3342L48.6504 35.3991L48.2635 27.934C48.2635 27.934 48.1242 25.2455 48.0349 23.5229C47.9868 22.5953 47.8966 22.0992 48.257 21.2431C48.4879 20.6947 48.9245 19.8216 49.4132 19.482M14.6498 55.7771C14.5194 55.6912 13.8933 56.254 13.8933 56.254L8.01731 61.0438C8.01731 61.0438 7.56099 61.3614 7.71663 61.8069C7.84582 62.1768 7.96514 62.2254 7.96514 62.2254L13.1804 64.3814C13.1804 64.3814 13.3957 64.5277 13.7459 64.3521C14.1443 64.1522 14.1885 63.6263 14.1885 63.6263L14.6909 56.5688C14.6909 56.5688 14.7803 55.8629 14.6498 55.7771Z" stroke="#AE00FF" stroke-width="1.5" stroke-linecap="round"/>
<path d="M58.0544 59.2951C58.0544 59.2951 62.5475 60.4962 65.4884 60.4976C67.8393 60.4988 69.2592 60.5618 71.4597 59.7345C73.4624 58.9815 74.7734 58.3674 76.0636 56.6606C76.9821 55.4455 77.1996 54.5721 77.4654 53.0722C77.7355 51.5479 77.6604 50.695 77.153 49.2324C76.7178 47.9781 76.4778 47.2977 75.5302 46.3679C74.6714 45.5252 74.0883 45.3306 72.9598 44.9133C71.9427 44.5373 69.7642 45.1428 70.1983 44.1491C70.6038 43.2208 70.8119 42.9077 71.5632 42.037C72.4593 40.9983 73.0919 40.4547 74.4102 40.0749C75.6493 39.7178 76.3884 39.4495 77.6727 39.5656C78.957 39.6816 79.6642 40.0246 80.7911 40.6515C82.1306 41.3966 82.7212 42.0032 83.6463 43.2254C84.7525 44.6867 85.1896 45.7781 85.6847 47.5428C86.2125 49.4243 86.3225 50.785 86.1805 52.734C86.0555 54.4499 85.9187 55.4131 85.3736 56.8586C84.8284 58.3041 84.4758 59.0609 83.6266 60.3515C82.8694 61.5022 82.3071 62.0653 81.2672 62.9688C80.0354 64.039 79.3112 64.6324 77.8781 65.4126C76.5637 66.1283 75.7524 66.4003 74.3232 66.8444C72.6982 67.3493 71.7483 67.5313 70.0603 67.7458C68.5245 67.9409 67.6495 67.9398 66.1015 67.951C64.5919 67.9619 63.7457 67.8929 62.2383 67.8109C61.1262 67.7505 60.4972 67.7636 59.393 67.6182C58.3082 67.4753 57.7139 67.3062 56.6433 67.0802C55.8348 66.9096 55.3825 66.8088 54.578 66.6202M58.6583 33.7463C58.6583 33.7463 59.4884 33.7381 60.0156 33.676C60.8172 33.5816 61.2599 33.4602 62.0339 33.2312C62.9728 32.9534 63.487 32.7432 64.3681 32.3163C65.3118 31.8591 65.812 31.5389 66.6789 30.949C67.5716 30.3416 68.0589 29.9734 68.859 29.2483C69.6241 28.5549 70.0283 28.1333 70.688 27.3389C71.2706 26.6375 71.5852 26.2287 72.0646 25.453C72.5232 24.7109 72.7271 24.262 73.096 23.4716C73.4893 22.6289 73.7146 22.1539 74.0026 21.2698C74.2887 20.3916 74.3878 19.879 74.564 18.9724C74.6849 18.3508 74.6363 18.3435 74.7258 17.7165C74.7956 17.227 74.7568 16.1272 74.7568 16.1272C74.7568 16.1272 73.817 16.4249 73.0836 16.6675C72.3797 16.9004 72.0192 17.1343 71.3032 17.3269C70.5721 17.5235 70.1425 17.6285 69.398 17.7658C68.7829 17.8793 68.4405 17.8791 67.8204 17.961C67.0311 18.0652 66.5806 18.0658 65.7844 18.0665C64.9394 18.0673 64.4663 18.0146 63.6237 17.9517C62.7316 17.8851 62.2223 17.752 61.3381 17.6165C60.4791 17.4848 60.0238 17.412 59.1656 17.2754C58.3685 17.1486 58.1406 17.1179 57.3383 17.0299C56.4926 16.9372 55.7957 16.7822 54.9455 16.8137C54.0078 16.8485 53.4717 16.9613 52.5878 17.2761C51.8601 17.5353 51.457 17.726 50.8191 18.1616C49.991 18.7272 48.9842 19.9579 48.9842 19.9579M44.2582 11.9238C44.2582 11.9238 45.3678 10.7308 46.2062 10.1217C47.0064 9.54042 47.5044 9.27161 48.4097 8.8734C49.3721 8.4501 49.9505 8.29131 50.976 8.05993C52.1011 7.8061 52.7562 7.7824 53.9051 7.68131C54.9185 7.59215 55.4894 7.53347 56.5066 7.54649C57.5324 7.55962 58.1081 7.6199 59.1256 7.75098C60.2535 7.89628 60.8692 8.08202 61.9885 8.28308C63.372 8.53162 64.1501 8.65741 65.5358 8.89311C66.7419 9.09825 67.4055 9.14594 68.619 9.30038C69.5064 9.4133 70.3875 9.52103 70.7857 9.52832C71.1838 9.53562 72.0334 9.53171 72.9406 9.53006C73.0906 9.52978 74.4571 9.41333 75.4231 9.28799C76.2611 9.17925 76.7338 9.03867 77.5545 8.83729C78.357 8.64038 78.7879 8.55456 79.567 8.27935C80.2661 8.03239 80.6795 7.8408 81.3415 7.50691C81.8364 7.25734 82.0882 7.06943 82.5506 6.76379C83.0316 6.44575 83.7596 6.02066 83.7596 6.02066C83.7596 6.02066 83.8685 7.74322 83.9061 8.84835C83.9467 10.0427 84.0151 10.5761 83.9513 11.9081C83.8874 13.2401 83.8306 13.9558 83.6747 15.3248C83.5188 16.6938 83.4885 17.4954 83.1778 18.8663C82.8995 20.0939 82.7013 20.7739 82.3181 21.9729C81.9379 23.1623 81.7162 23.8296 81.2263 24.9782C80.7291 26.1439 80.4184 26.7877 79.7894 27.8879C79.1921 28.9325 78.8168 29.4974 78.1086 30.4701C77.4081 31.4322 76.9922 31.9587 76.1899 32.8377C75.4718 33.6245 75.0503 34.0526 74.2478 34.753C73.3604 35.5274 72.8199 35.9144 71.8473 36.5785C70.932 37.2036 70.4187 37.5651 69.4293 38.0648C68.4679 38.5503 67.8919 38.7503 66.8747 39.1045C65.7601 39.4925 65.115 39.6527 63.9691 39.9355C63.1855 40.1289 62.7471 40.2487 61.9508 40.3804C61.3383 40.4816 60.3731 40.5755 60.3731 40.5755" stroke="#AE00FF" stroke-width="1.5" stroke-linecap="round"/>
<path d="M45.303 45.2126C45.303 45.2126 45.9586 45.7882 46.4751 45.9457C47.152 46.1521 47.5941 46.0061 48.2848 45.8519C49.1185 45.6658 49.7287 45.6074 50.2797 44.9546C50.9234 44.1921 51.0148 43.4164 51.0556 42.4194C51.0845 41.7123 51.1022 41.3033 50.9618 40.6097C50.8147 39.883 50.4797 39.3787 49.9631 38.8468C49.6298 38.5036 48.91 38.221 48.91 38.221" stroke="#AE00FF" stroke-width="1.5" stroke-linecap="round"/>
<path d="M45.1358 31.0448C45.1358 31.0448 46.2423 31.3391 46.9689 31.4035C47.9382 31.4893 48.9828 31.6015 49.4573 31.2745C49.4573 31.2745 50.5458 30.6333 51.0953 30.0555C51.7295 29.3886 52.0052 28.6474 52.3529 28.0623C52.7006 27.4773 52.6551 26.8869 52.7057 26.1161C52.7578 25.3216 52.8355 24.8407 52.6002 24.0801C52.3955 23.4188 52.1914 23.0506 51.7264 22.5377C51.3041 22.0719 50.9717 21.9022 50.4294 21.5842C50.0366 21.3538 49.7811 21.2909 49.3821 21.0714C49.1027 20.9177 48.6801 20.6541 48.6801 20.6541" stroke="#AE00FF" stroke-width="1.5" stroke-linecap="round"/>
<path d="M45.9929 60.7141C45.9929 60.7141 46.9615 60.9406 47.594 60.9714C48.1683 60.9993 48.5024 61.0168 49.0644 60.8952C49.8592 60.7231 50.3449 60.5512 50.9462 60.0038C51.4368 59.5571 51.8167 59.2234 52.0069 58.5878C52.2225 57.8675 52.4109 57.6099 52.2583 56.8737C52.1079 56.1476 51.5495 55.5051 51.1348 54.8905C50.802 54.3972 50.5414 54.1595 50.0583 53.8122C49.7993 53.626 49.3562 53.3949 49.3562 53.3949" stroke="#AE00FF" stroke-width="1.5" stroke-linecap="round"/>
<path d="M106.968 62V15.92H117.272L139.736 55.984L137.368 56.56V15.92H145.432V62H135.128L112.664 21.936L115.032 21.36V62H106.968ZM168.511 62.64C165.055 62.64 162.004 61.9147 159.359 60.464C156.756 59.0133 154.73 57.008 153.279 54.448C151.828 51.8453 151.103 48.88 151.103 45.552C151.103 42.224 151.828 39.3013 153.279 36.784C154.73 34.2667 156.756 32.304 159.359 30.896C162.004 29.4453 165.055 28.72 168.511 28.72C172.01 28.72 175.06 29.4453 177.663 30.896C180.266 32.304 182.292 34.2667 183.743 36.784C185.194 39.3013 185.919 42.224 185.919 45.552C185.919 48.88 185.172 51.8453 183.679 54.448C182.228 57.008 180.202 59.0133 177.599 60.464C174.996 61.9147 171.967 62.64 168.511 62.64ZM168.511 56.176C170.218 56.176 171.754 55.7493 173.119 54.896C174.484 54 175.551 52.7627 176.319 51.184C177.087 49.5627 177.471 47.664 177.471 45.488C177.471 42.288 176.618 39.7707 174.911 37.936C173.247 36.1013 171.114 35.184 168.511 35.184C165.908 35.184 163.754 36.1013 162.047 37.936C160.34 39.7707 159.487 42.288 159.487 45.488C159.487 47.664 159.871 49.5627 160.639 51.184C161.45 52.7627 162.516 54 163.839 54.896C165.204 55.7493 166.762 56.176 168.511 56.176ZM205.757 62.64C201.746 62.64 198.781 61.7013 196.861 59.824C194.983 57.904 194.045 55.0453 194.045 51.248V21.936L202.173 18.928V51.44C202.173 53.0187 202.599 54.192 203.453 54.96C204.306 55.728 205.65 56.112 207.485 56.112C208.21 56.112 208.85 56.0693 209.405 55.984C210.002 55.856 210.557 55.7067 211.069 55.536V61.808C210.557 62.064 209.831 62.256 208.893 62.384C207.954 62.5547 206.909 62.64 205.757 62.64ZM187.773 35.696V29.36H211.069V35.696H187.773ZM230.757 62.64C227.301 62.64 224.271 61.9147 221.669 60.464C219.109 59.0133 217.103 57.008 215.653 54.448C214.245 51.888 213.541 48.944 213.541 45.616C213.541 42.288 214.245 39.3653 215.653 36.848C217.103 34.288 219.109 32.304 221.669 30.896C224.229 29.4453 227.215 28.72 230.628 28.72C233.871 28.72 236.687 29.4027 239.077 30.768C241.466 32.0907 243.322 33.968 244.645 36.4C245.967 38.832 246.629 41.6693 246.629 44.912C246.629 45.5093 246.607 46.064 246.565 46.576C246.522 47.088 246.458 47.6 246.373 48.112H218.533V42.48H240.165L238.501 44.016C238.501 40.944 237.797 38.64 236.389 37.104C234.981 35.568 233.018 34.8 230.501 34.8C227.77 34.8 225.594 35.7387 223.973 37.616C222.394 39.4933 221.605 42.2027 221.605 45.744C221.605 49.2427 222.394 51.9307 223.973 53.808C225.594 55.6427 227.877 56.56 230.821 56.56C232.527 56.56 234.021 56.24 235.301 55.6C236.581 54.96 237.519 53.9787 238.117 52.656H245.733C244.666 55.728 242.853 58.16 240.293 59.952C237.775 61.744 234.597 62.64 230.757 62.64ZM271.287 62.64C268.172 62.64 265.612 61.9147 263.607 60.464C261.644 58.9707 260.428 56.9227 259.959 54.32L260.535 54.256V62H252.663V15.92H260.727V36.72L260.151 36.592C260.706 34.16 262.007 32.24 264.055 30.832C266.146 29.424 268.727 28.72 271.799 28.72C274.7 28.72 277.218 29.424 279.351 30.832C281.527 32.1973 283.212 34.1387 284.407 36.656C285.602 39.1733 286.199 42.1387 286.199 45.552C286.199 49.008 285.58 52.016 284.343 54.576C283.106 57.136 281.378 59.12 279.159 60.528C276.94 61.936 274.316 62.64 271.287 62.64ZM269.239 55.984C271.842 55.984 273.911 55.088 275.447 53.296C276.983 51.4613 277.751 48.9013 277.751 45.616C277.751 42.3307 276.962 39.792 275.383 38C273.847 36.208 271.778 35.312 269.175 35.312C266.615 35.312 264.546 36.2293 262.967 38.064C261.388 39.856 260.599 42.3947 260.599 45.68C260.599 48.9653 261.388 51.504 262.967 53.296C264.546 55.088 266.636 55.984 269.239 55.984ZM302.973 62.64C300.712 62.64 298.749 62.1707 297.085 61.232C295.464 60.2507 294.205 58.928 293.309 57.264C292.456 55.6 292.029 53.7227 292.029 51.632V29.36H300.093V49.968C300.093 51.9733 300.584 53.488 301.565 54.512C302.589 55.536 304.018 56.048 305.853 56.048C307.517 56.048 308.968 55.664 310.205 54.896C311.485 54.128 312.488 53.0613 313.213 51.696C313.981 50.288 314.365 48.7093 314.365 46.96L315.197 54.768C314.13 57.1573 312.53 59.0773 310.397 60.528C308.306 61.936 305.832 62.64 302.973 62.64ZM314.621 62V54.32H314.365V29.36H322.493V62H314.621ZM354.022 62V54.64L354.662 54.768C354.107 57.1573 352.763 59.0773 350.63 60.528C348.496 61.936 345.958 62.64 343.014 62.64C340.027 62.64 337.424 61.9573 335.206 60.592C333.03 59.184 331.344 57.2213 330.15 54.704C328.955 52.1867 328.358 49.2213 328.358 45.808C328.358 42.352 328.976 39.344 330.214 36.784C331.451 34.224 333.179 32.24 335.398 30.832C337.659 29.424 340.283 28.72 343.27 28.72C346.342 28.72 348.88 29.4667 350.886 30.96C352.891 32.4107 354.128 34.4373 354.598 37.04L353.766 37.104V15.92H361.894V62H354.022ZM345.382 56.048C347.984 56.048 350.054 55.152 351.59 53.36C353.168 51.5253 353.958 48.9653 353.958 45.68C353.958 42.3947 353.168 39.856 351.59 38.064C350.011 36.272 347.92 35.376 345.318 35.376C342.758 35.376 340.688 36.2933 339.11 38.128C337.531 39.92 336.742 42.4587 336.742 45.744C336.742 49.0293 337.531 51.568 339.11 53.36C340.688 55.152 342.779 56.048 345.382 56.048Z" fill="white"/>
</svg>
