<svg width="166" height="166" viewBox="0 0 166 166" fill="none" xmlns="http://www.w3.org/2000/svg">
<path d="M83.6091 47.0799C83.6091 47.0799 81.3344 44.5167 79.7551 42.9947C78.649 41.9287 78.2985 41.2409 77.0471 40.3499C75.4008 39.1777 75.4739 38.9317 73.057 37.7714C70.6402 36.6112 66.783 36.5969 66.783 36.5969C66.783 36.5969 35.6718 39.9718 15.7151 39.2435C11.0953 39.0749 4.33504 38.7621 3.89663 38.5705C3.45822 38.379 3.88229 42.4277 3.88229 42.4277L4.48003 124.239C4.48003 124.239 4.35221 127.893 5.42004 129.975C5.99209 131.09 7.67593 133.153 8.82446 133.655C10.1397 134.23 9.83658 134.46 10.7475 133.555C14.6191 129.713 25.5561 121.647 25.5561 121.647C25.7996 121.209 25.7465 121.186 25.7034 120.354C25.3554 113.64 23.7176 82.0376 22.6249 60.9529C22.6032 60.5356 22.6027 60.5255 22.5695 59.8845C22.5363 59.2435 26.5739 58.6057 26.5739 58.6057C26.5739 58.6057 34.4964 57.091 38.0347 56.512C40.9314 56.038 42.5581 55.762 45.4801 55.4834C48.4745 55.1979 50.1992 54.6275 53.1723 55.0848C56.2413 55.5568 57.8459 56.4856 60.6033 57.9133C62.8892 59.0969 64.1456 59.8608 66.1445 61.4826C68.9111 63.7273 70.6582 65.0622 72.2791 68.2348C73.7106 71.0368 73.7788 72.9431 74.1846 76.0632C74.7028 80.0482 74.2241 82.337 74.0751 86.3528C73.8752 91.7383 73.501 94.7441 73.0744 100.116C72.6872 104.993 72.3838 107.72 72.0073 112.598C71.6899 116.711 71.6284 119.025 71.2679 123.134C70.8537 127.856 70.4607 130.487 69.965 135.2C69.6819 137.891 69.1075 139.687 69.9031 142.273C70.5435 144.356 70.8676 145.18 72.486 146.639C74.2954 148.27 75.164 148.911 77.5555 149.375C79.5242 149.757 80.939 150.057 82.9416 149.953C85.1946 149.836 86.3913 149.915 88.4639 149.024C89.8478 148.429 90.6486 148.276 91.3557 146.946C91.8029 146.105 92.32 145.25 92.5048 144.316C94.2432 135.526 92.8156 121.375 92.8156 121.375L92.0405 106.418L91.9063 91.4275L91.1755 77.3251C91.1755 77.3251 90.9122 72.2462 90.7436 68.9919C90.6528 67.2395 90.4823 66.3024 91.1631 64.6852C91.5993 63.6491 92.4242 61.9997 93.3474 61.3583M27.6753 129.924C27.4288 129.762 26.246 130.825 26.246 130.825L15.1457 139.873C15.1457 139.873 14.2836 140.473 14.5776 141.315C14.8217 142.014 15.0471 142.106 15.0471 142.106L24.8993 146.178C24.8993 146.178 25.3061 146.455 25.9676 146.123C26.7202 145.746 26.8038 144.752 26.8038 144.752L27.7528 131.42C27.7528 131.42 27.9217 130.086 27.6753 129.924Z" stroke="white" stroke-width="5" stroke-linecap="round"/>
<path d="M109.672 136.57C109.672 136.57 118.16 138.839 123.715 138.842C128.156 138.844 130.839 138.963 134.996 137.4C138.779 135.978 141.256 134.817 143.693 131.593C145.428 129.298 145.839 127.648 146.341 124.814C146.852 121.935 146.71 120.323 145.751 117.56C144.929 115.191 144.476 113.905 142.685 112.149C141.063 110.557 139.962 110.189 137.83 109.401C135.908 108.691 131.793 109.835 132.613 107.957C133.379 106.204 133.772 105.612 135.191 103.967C136.884 102.005 138.079 100.978 140.57 100.261C142.91 99.5861 144.307 99.0792 146.733 99.2985C149.159 99.5177 150.495 100.166 152.624 101.35C155.154 102.758 156.27 103.903 158.018 106.212C160.107 108.973 160.933 111.035 161.868 114.368C162.866 117.923 163.074 120.493 162.805 124.175C162.569 127.417 162.311 129.236 161.281 131.967C160.251 134.698 159.585 136.127 157.981 138.565C156.55 140.739 155.488 141.803 153.523 143.51C151.196 145.532 149.828 146.653 147.121 148.127C144.638 149.479 143.105 149.993 140.405 150.831C137.336 151.785 135.541 152.129 132.352 152.534C129.451 152.903 127.798 152.901 124.874 152.922C122.022 152.942 120.423 152.812 117.576 152.657C115.475 152.543 114.286 152.568 112.2 152.293C110.151 152.023 109.028 151.704 107.006 151.277C105.479 150.955 104.624 150.764 103.104 150.408M110.812 88.3053C110.812 88.3053 112.381 88.2897 113.377 88.1724C114.891 87.994 115.727 87.7646 117.189 87.332C118.963 86.8072 119.934 86.4102 121.599 85.6038C123.382 84.7401 124.327 84.1351 125.964 83.0208C127.651 81.8733 128.571 81.1778 130.083 79.8079C131.528 78.4979 132.292 77.7015 133.538 76.2009C134.639 74.8757 135.233 74.1035 136.139 72.6382C137.005 71.2363 137.39 70.3883 138.087 68.895C138.83 67.3032 139.256 66.4058 139.8 64.7355C140.34 63.0766 140.527 62.1083 140.86 60.3956C141.089 59.2213 140.997 59.2074 141.166 58.0231C141.298 57.0983 141.224 55.0206 141.224 55.0206C141.224 55.0206 139.449 55.583 138.064 56.0414C136.734 56.4813 136.053 56.9231 134.7 57.2869C133.319 57.6584 132.508 57.8567 131.101 58.1162C129.939 58.3306 129.292 58.3302 128.121 58.4849C126.63 58.6817 125.779 58.6829 124.275 58.6842C122.678 58.6857 121.785 58.5861 120.193 58.4673C118.508 58.3415 117.545 58.0901 115.875 57.8341C114.252 57.5853 113.392 57.4477 111.771 57.1898C110.265 56.9502 109.835 56.8921 108.319 56.7259C106.721 56.5508 105.405 56.2579 103.798 56.3175C102.027 56.3832 101.014 56.5964 99.3446 57.191C97.9699 57.6806 97.2084 58.041 96.0033 58.8639C94.4389 59.9323 92.537 62.2573 92.537 62.2573M83.609 47.0799C83.609 47.0799 85.7051 44.8262 87.289 43.6755C88.8006 42.5774 89.7415 42.0696 91.4518 41.3173C93.2698 40.5176 94.3624 40.2177 96.2998 39.7806C98.4253 39.3011 99.6626 39.2563 101.833 39.0653C103.748 38.8969 104.826 38.786 106.748 38.8106C108.686 38.8354 109.773 38.9493 111.695 39.1969C113.826 39.4714 114.989 39.8223 117.104 40.2021C119.717 40.6716 121.187 40.9093 123.805 41.3546C126.083 41.7421 127.337 41.8322 129.63 42.1239C131.306 42.3373 132.97 42.5408 133.723 42.5545C134.475 42.5683 136.08 42.5609 137.793 42.5578C138.077 42.5573 140.658 42.3373 142.483 42.1005C144.066 41.8951 144.959 41.6295 146.51 41.2491C148.026 40.8771 148.84 40.715 150.312 40.1951C151.632 39.7286 152.413 39.3666 153.664 38.7359C154.599 38.2644 155.074 37.9094 155.948 37.332C156.857 36.7312 158.232 35.9282 158.232 35.9282C158.232 35.9282 158.438 39.1823 158.509 41.27C158.585 43.5263 158.715 44.5339 158.594 47.0502C158.473 49.5665 158.366 50.9185 158.071 53.5047C157.777 56.0909 157.72 57.6053 157.133 60.195C156.607 62.5143 156.233 63.7987 155.509 66.0639C154.79 68.3108 154.372 69.5714 153.446 71.7412C152.507 73.9434 151.92 75.1596 150.732 77.238C149.603 79.2113 148.894 80.2785 147.556 82.116C146.233 83.9336 145.447 84.9282 143.932 86.5888C142.575 88.0751 141.779 88.8838 140.263 90.2069C138.587 91.6698 137.565 92.4009 135.728 93.6556C133.999 94.8365 133.029 95.5194 131.16 96.4633C129.344 97.3806 128.256 97.7584 126.334 98.4274C124.229 99.1605 123.01 99.4632 120.845 99.9974C119.365 100.363 118.537 100.589 117.032 100.838C115.875 101.029 114.052 101.206 114.052 101.206" stroke="white" stroke-width="5" stroke-linecap="round"/>
<path d="M85.5827 109.966C85.5827 109.966 86.8213 111.054 87.7969 111.351C89.0757 111.741 89.9109 111.465 91.2157 111.174C92.7907 110.822 93.9433 110.712 94.9843 109.479C96.2003 108.039 96.373 106.573 96.45 104.69C96.5047 103.354 96.538 102.581 96.2729 101.271C95.9951 99.898 95.3621 98.9455 94.3863 97.9407C93.7567 97.2923 92.3968 96.7583 92.3968 96.7583" stroke="white" stroke-width="5" stroke-linecap="round"/>
<path d="M85.2668 83.2017C85.2668 83.2017 87.3572 83.7577 88.7298 83.8793C90.5609 84.0414 92.5343 84.2534 93.4307 83.6356C93.4307 83.6356 95.487 82.4243 96.525 81.3328C97.7232 80.0729 98.244 78.6727 98.9008 77.5675C99.5577 76.4622 99.4717 75.3468 99.5673 73.8907C99.6657 72.3899 99.8125 71.4814 99.3679 70.0446C98.9814 68.7952 98.5956 68.0996 97.7172 67.1307C96.9196 66.2509 96.2916 65.9301 95.2671 65.3295C94.525 64.8943 94.0425 64.7754 93.2887 64.3608C92.7608 64.0703 91.9624 63.5725 91.9624 63.5725" stroke="white" stroke-width="5" stroke-linecap="round"/>
<path d="M86.8861 139.251C86.8861 139.251 88.7158 139.678 89.9107 139.737C90.9957 139.789 91.6268 139.822 92.6885 139.593C94.1899 139.268 95.1076 138.943 96.2434 137.909C97.1702 137.065 97.8879 136.435 98.2473 135.234C98.6545 133.873 99.0103 133.386 98.7222 131.996C98.438 130.624 97.3832 129.41 96.5998 128.249C95.9711 127.317 95.4788 126.868 94.566 126.212C94.0767 125.86 93.2397 125.424 93.2397 125.424" stroke="white" stroke-width="5" stroke-linecap="round"/>
</svg>
